<svg width="215" height="40" viewBox="0 0 215 40" fill="none" xmlns="http://www.w3.org/2000/svg">
<g clip-path="url(#clip0_403_3713)">
<path fill-rule="evenodd" clip-rule="evenodd" d="M8 10C8 8.61929 9.11929 7.5 10.5 7.5H14.25C15.6307 7.5 16.75 8.61929 16.75 10V30C16.75 31.3807 15.6307 32.5 14.25 32.5H10.5C9.11929 32.5 8 31.3807 8 30V10ZM14.25 10H10.5V30H14.25V10Z" fill="#4B2995"/>
<path fill-rule="evenodd" clip-rule="evenodd" d="M24.25 10C24.25 8.61929 25.3693 7.5 26.75 7.5H30.5C31.8807 7.5 33 8.61929 33 10V30C33 31.3807 31.8807 32.5 30.5 32.5H26.75C25.3693 32.5 24.25 31.3807 24.25 30V10ZM30.5 10H26.75V30H30.5V10Z" fill="#4B2995"/>
<path fill-rule="evenodd" clip-rule="evenodd" d="M30.5 12.5C30.5 11.8096 31.0596 11.25 31.75 11.25H35.5C36.163 11.25 36.7989 11.5134 37.2678 11.9822C37.7366 12.4511 38 13.087 38 13.75V26.25C38 26.913 37.7366 27.5489 37.2678 28.0178C36.7989 28.4866 36.163 28.75 35.5 28.75H31.75C31.0596 28.75 30.5 28.1904 30.5 27.5C30.5 26.8096 31.0596 26.25 31.75 26.25H35.5L35.5 13.75L31.75 13.75C31.0596 13.75 30.5 13.1904 30.5 12.5Z" fill="#4B2995"/>
<path fill-rule="evenodd" clip-rule="evenodd" d="M3.73223 11.9822C4.20107 11.5134 4.83696 11.25 5.5 11.25H9.25C9.94036 11.25 10.5 11.8096 10.5 12.5C10.5 13.1904 9.94036 13.75 9.25 13.75L5.5 13.75V26.25H9.25C9.94036 26.25 10.5 26.8096 10.5 27.5C10.5 28.1904 9.94036 28.75 9.25 28.75H5.5C4.83696 28.75 4.20108 28.4866 3.73223 28.0178C3.26339 27.5489 3 26.913 3 26.25V13.75C3 13.087 3.26339 12.4511 3.73223 11.9822Z" fill="#4B2995"/>
<path fill-rule="evenodd" clip-rule="evenodd" d="M14.25 20C14.25 19.3096 14.8096 18.75 15.5 18.75H25.5C26.1904 18.75 26.75 19.3096 26.75 20C26.75 20.6904 26.1904 21.25 25.5 21.25H15.5C14.8096 21.25 14.25 20.6904 14.25 20Z" fill="#4B2995"/>
<path fill-rule="evenodd" clip-rule="evenodd" d="M35.5 20C35.5 19.3096 36.0596 18.75 36.75 18.75H39.25C39.9404 18.75 40.5 19.3096 40.5 20C40.5 20.6904 39.9404 21.25 39.25 21.25H36.75C36.0596 21.25 35.5 20.6904 35.5 20Z" fill="#4B2995"/>
<path fill-rule="evenodd" clip-rule="evenodd" d="M0.5 20C0.5 19.3096 1.05964 18.75 1.75 18.75H4.25C4.94036 18.75 5.5 19.3096 5.5 20C5.5 20.6904 4.94036 21.25 4.25 21.25H1.75C1.05964 21.25 0.5 20.6904 0.5 20Z" fill="#4B2995"/>
</g>
<path d="M58.4824 9.59375V29.5H54.3809V9.59375H58.4824ZM70.4043 9.59375L62.5156 19.4238L57.9629 24.3184L57.2246 20.4355L60.3008 16.2246L65.373 9.59375H70.4043ZM65.7422 29.5L59.877 20.2988L62.9121 17.7559L70.5957 29.5H65.7422ZM77.6914 26.6973C78.1745 26.6973 78.6029 26.6061 78.9766 26.4238C79.3503 26.2324 79.6419 25.9681 79.8516 25.6309C80.0703 25.2845 80.1842 24.8789 80.1934 24.4141H83.8984C83.8893 25.4531 83.6113 26.3783 83.0645 27.1895C82.5176 27.9915 81.7839 28.625 80.8633 29.0898C79.9427 29.5456 78.9128 29.7734 77.7734 29.7734C76.625 29.7734 75.6224 29.582 74.7656 29.1992C73.918 28.8164 73.2116 28.2878 72.6465 27.6133C72.0814 26.9297 71.6576 26.1367 71.375 25.2344C71.0924 24.3229 70.9512 23.3477 70.9512 22.3086V21.9121C70.9512 20.8639 71.0924 19.8887 71.375 18.9863C71.6576 18.0749 72.0814 17.2819 72.6465 16.6074C73.2116 15.9238 73.918 15.3906 74.7656 15.0078C75.6133 14.625 76.6068 14.4336 77.7461 14.4336C78.9583 14.4336 80.0202 14.666 80.9316 15.1309C81.8522 15.5957 82.5723 16.2611 83.0918 17.127C83.6204 17.9837 83.8893 19 83.8984 20.1758H80.1934C80.1842 19.6836 80.0794 19.237 79.8789 18.8359C79.6875 18.4349 79.4049 18.1159 79.0312 17.8789C78.6667 17.6328 78.2155 17.5098 77.6777 17.5098C77.1035 17.5098 76.6341 17.6328 76.2695 17.8789C75.9049 18.1159 75.6224 18.444 75.4219 18.8633C75.2214 19.2734 75.0801 19.7428 74.998 20.2715C74.9251 20.791 74.8887 21.3379 74.8887 21.9121V22.3086C74.8887 22.8828 74.9251 23.4342 74.998 23.9629C75.071 24.4915 75.2077 24.9609 75.4082 25.3711C75.6178 25.7812 75.9049 26.1048 76.2695 26.3418C76.6341 26.5788 77.1081 26.6973 77.6914 26.6973ZM94.166 26.1641V19.5742C94.166 19.1003 94.0885 18.6947 93.9336 18.3574C93.7786 18.0111 93.5371 17.7422 93.209 17.5508C92.89 17.3594 92.4753 17.2637 91.9648 17.2637C91.5273 17.2637 91.1491 17.3411 90.8301 17.4961C90.5111 17.6419 90.265 17.8561 90.0918 18.1387C89.9186 18.4121 89.832 18.7357 89.832 19.1094H85.8945C85.8945 18.4805 86.0404 17.8835 86.332 17.3184C86.6237 16.7533 87.0475 16.2565 87.6035 15.8281C88.1595 15.3906 88.8203 15.0488 89.5859 14.8027C90.3607 14.5566 91.2266 14.4336 92.1836 14.4336C93.332 14.4336 94.3529 14.625 95.2461 15.0078C96.1393 15.3906 96.8411 15.9648 97.3516 16.7305C97.8711 17.4961 98.1309 18.4531 98.1309 19.6016V25.9316C98.1309 26.7428 98.181 27.4082 98.2812 27.9277C98.3815 28.4382 98.5273 28.8848 98.7188 29.2676V29.5H94.7402C94.5488 29.099 94.403 28.5977 94.3027 27.9961C94.2116 27.3854 94.166 26.7747 94.166 26.1641ZM94.6855 20.4902L94.7129 22.7188H92.5117C91.9922 22.7188 91.541 22.778 91.1582 22.8965C90.7754 23.015 90.4609 23.1836 90.2148 23.4023C89.9688 23.612 89.7865 23.8581 89.668 24.1406C89.5586 24.4232 89.5039 24.7331 89.5039 25.0703C89.5039 25.4076 89.5814 25.7129 89.7363 25.9863C89.8913 26.2507 90.1146 26.4603 90.4062 26.6152C90.6979 26.7611 91.0397 26.834 91.4316 26.834C92.0241 26.834 92.5391 26.7155 92.9766 26.4785C93.4141 26.2415 93.7513 25.9499 93.9883 25.6035C94.2344 25.2572 94.362 24.929 94.3711 24.6191L95.4102 26.2871C95.2643 26.6608 95.0638 27.0482 94.8086 27.4492C94.5625 27.8503 94.248 28.2285 93.8652 28.584C93.4824 28.9303 93.0221 29.2174 92.4844 29.4453C91.9466 29.6641 91.3086 29.7734 90.5703 29.7734C89.6315 29.7734 88.7793 29.5866 88.0137 29.2129C87.2572 28.8301 86.6556 28.306 86.209 27.6406C85.7715 26.9661 85.5527 26.2005 85.5527 25.3438C85.5527 24.569 85.6986 23.8809 85.9902 23.2793C86.2819 22.6777 86.7103 22.1719 87.2754 21.7617C87.8496 21.3424 88.5651 21.028 89.4219 20.8184C90.2786 20.5996 91.2721 20.4902 92.4023 20.4902H94.6855ZM105.322 8.5V29.5H101.371V8.5H105.322ZM127.334 22.8965H131.422C131.34 24.2363 130.971 25.4258 130.314 26.4648C129.667 27.5039 128.76 28.3151 127.594 28.8984C126.436 29.4818 125.042 29.7734 123.41 29.7734C122.134 29.7734 120.99 29.5547 119.979 29.1172C118.967 28.6706 118.101 28.0326 117.381 27.2031C116.67 26.3737 116.128 25.3711 115.754 24.1953C115.38 23.0195 115.193 21.7025 115.193 20.2441V18.8633C115.193 17.4049 115.385 16.0879 115.768 14.9121C116.16 13.7272 116.715 12.7201 117.436 11.8906C118.165 11.0612 119.035 10.4232 120.047 9.97656C121.059 9.52995 122.189 9.30664 123.438 9.30664C125.096 9.30664 126.495 9.60742 127.635 10.209C128.783 10.8105 129.672 11.64 130.301 12.6973C130.939 13.7546 131.322 14.9577 131.449 16.3066H127.348C127.302 15.5046 127.143 14.8255 126.869 14.2695C126.596 13.7044 126.181 13.2806 125.625 12.998C125.078 12.7064 124.349 12.5605 123.438 12.5605C122.754 12.5605 122.157 12.6882 121.646 12.9434C121.136 13.1986 120.708 13.5859 120.361 14.1055C120.015 14.625 119.755 15.2812 119.582 16.0742C119.418 16.8581 119.336 17.7786 119.336 18.8359V20.2441C119.336 21.2741 119.413 22.181 119.568 22.9648C119.723 23.7396 119.96 24.3958 120.279 24.9336C120.607 25.4622 121.027 25.8633 121.537 26.1367C122.057 26.401 122.681 26.5332 123.41 26.5332C124.267 26.5332 124.973 26.3965 125.529 26.123C126.085 25.8496 126.509 25.444 126.801 24.9062C127.102 24.3685 127.279 23.6986 127.334 22.8965ZM133.24 22.2539V21.9668C133.24 20.8822 133.395 19.8841 133.705 18.9727C134.015 18.0521 134.466 17.2546 135.059 16.5801C135.651 15.9056 136.38 15.3815 137.246 15.0078C138.112 14.625 139.105 14.4336 140.227 14.4336C141.348 14.4336 142.346 14.625 143.221 15.0078C144.096 15.3815 144.829 15.9056 145.422 16.5801C146.023 17.2546 146.479 18.0521 146.789 18.9727C147.099 19.8841 147.254 20.8822 147.254 21.9668V22.2539C147.254 23.3294 147.099 24.3275 146.789 25.248C146.479 26.1595 146.023 26.957 145.422 27.6406C144.829 28.3151 144.1 28.8392 143.234 29.2129C142.368 29.5866 141.375 29.7734 140.254 29.7734C139.133 29.7734 138.135 29.5866 137.26 29.2129C136.394 28.8392 135.66 28.3151 135.059 27.6406C134.466 26.957 134.015 26.1595 133.705 25.248C133.395 24.3275 133.24 23.3294 133.24 22.2539ZM137.178 21.9668V22.2539C137.178 22.8737 137.232 23.4525 137.342 23.9902C137.451 24.528 137.624 25.002 137.861 25.4121C138.107 25.8132 138.426 26.1276 138.818 26.3555C139.21 26.5833 139.689 26.6973 140.254 26.6973C140.801 26.6973 141.27 26.5833 141.662 26.3555C142.054 26.1276 142.368 25.8132 142.605 25.4121C142.842 25.002 143.016 24.528 143.125 23.9902C143.243 23.4525 143.303 22.8737 143.303 22.2539V21.9668C143.303 21.3652 143.243 20.8001 143.125 20.2715C143.016 19.7337 142.838 19.2598 142.592 18.8496C142.355 18.4303 142.04 18.1022 141.648 17.8652C141.257 17.6283 140.783 17.5098 140.227 17.5098C139.671 17.5098 139.197 17.6283 138.805 17.8652C138.422 18.1022 138.107 18.4303 137.861 18.8496C137.624 19.2598 137.451 19.7337 137.342 20.2715C137.232 20.8001 137.178 21.3652 137.178 21.9668ZM158.424 25.959V14.707H162.361V29.5H158.656L158.424 25.959ZM158.861 22.9238L160.023 22.8965C160.023 23.8809 159.91 24.7969 159.682 25.6445C159.454 26.4831 159.112 27.2122 158.656 27.832C158.201 28.4427 157.626 28.9212 156.934 29.2676C156.241 29.6048 155.425 29.7734 154.486 29.7734C153.766 29.7734 153.101 29.6732 152.49 29.4727C151.889 29.263 151.369 28.9395 150.932 28.502C150.503 28.0553 150.166 27.4857 149.92 26.793C149.683 26.0911 149.564 25.248 149.564 24.2637V14.707H153.502V24.291C153.502 24.7285 153.552 25.0977 153.652 25.3984C153.762 25.6992 153.912 25.9453 154.104 26.1367C154.295 26.3281 154.518 26.4648 154.773 26.5469C155.038 26.6289 155.329 26.6699 155.648 26.6699C156.46 26.6699 157.098 26.5059 157.562 26.1777C158.036 25.8496 158.369 25.403 158.561 24.8379C158.761 24.2637 158.861 23.6257 158.861 22.9238ZM169.225 17.8652V29.5H165.287V14.707H168.979L169.225 17.8652ZM168.65 21.584H167.584C167.584 20.4902 167.725 19.5059 168.008 18.6309C168.29 17.7467 168.687 16.9948 169.197 16.375C169.708 15.7461 170.314 15.2676 171.016 14.9395C171.727 14.6022 172.52 14.4336 173.395 14.4336C174.087 14.4336 174.721 14.5339 175.295 14.7344C175.869 14.9349 176.361 15.2539 176.771 15.6914C177.191 16.1289 177.51 16.7077 177.729 17.4277C177.956 18.1478 178.07 19.0273 178.07 20.0664V29.5H174.105V20.0527C174.105 19.3965 174.014 18.8861 173.832 18.5215C173.65 18.1569 173.381 17.9017 173.025 17.7559C172.679 17.6009 172.251 17.5234 171.74 17.5234C171.212 17.5234 170.751 17.6283 170.359 17.8379C169.977 18.0475 169.658 18.3392 169.402 18.7129C169.156 19.0775 168.969 19.5059 168.842 19.998C168.714 20.4902 168.65 21.0189 168.65 21.584ZM188.311 14.707V17.4961H179.697V14.707H188.311ZM181.83 11.0566H185.768V25.043C185.768 25.4714 185.822 25.7995 185.932 26.0273C186.05 26.2552 186.223 26.4147 186.451 26.5059C186.679 26.5879 186.966 26.6289 187.312 26.6289C187.559 26.6289 187.777 26.6198 187.969 26.6016C188.169 26.5742 188.338 26.5469 188.475 26.5195L188.488 29.418C188.151 29.5273 187.786 29.6139 187.395 29.6777C187.003 29.7415 186.57 29.7734 186.096 29.7734C185.23 29.7734 184.473 29.6322 183.826 29.3496C183.188 29.0579 182.696 28.5931 182.35 27.9551C182.003 27.3171 181.83 26.4785 181.83 25.4395V11.0566ZM197.361 29.7734C196.213 29.7734 195.183 29.5911 194.271 29.2266C193.36 28.8529 192.585 28.3379 191.947 27.6816C191.318 27.0254 190.835 26.2643 190.498 25.3984C190.161 24.5234 189.992 23.5938 189.992 22.6094V22.0625C189.992 20.9414 190.152 19.916 190.471 18.9863C190.79 18.0566 191.245 17.25 191.838 16.5664C192.439 15.8828 193.169 15.3587 194.025 14.9941C194.882 14.6204 195.848 14.4336 196.924 14.4336C197.972 14.4336 198.902 14.6068 199.713 14.9531C200.524 15.2995 201.203 15.7917 201.75 16.4297C202.306 17.0677 202.725 17.8333 203.008 18.7266C203.29 19.6107 203.432 20.5951 203.432 21.6797V23.3203H191.674V20.6953H199.562V20.3945C199.562 19.8477 199.462 19.36 199.262 18.9316C199.07 18.4941 198.779 18.1478 198.387 17.8926C197.995 17.6374 197.493 17.5098 196.883 17.5098C196.363 17.5098 195.917 17.6237 195.543 17.8516C195.169 18.0794 194.864 18.3984 194.627 18.8086C194.399 19.2188 194.226 19.7018 194.107 20.2578C193.998 20.8047 193.943 21.4062 193.943 22.0625V22.6094C193.943 23.2018 194.025 23.7487 194.189 24.25C194.363 24.7513 194.604 25.1842 194.914 25.5488C195.233 25.9134 195.616 26.196 196.062 26.3965C196.518 26.597 197.033 26.6973 197.607 26.6973C198.318 26.6973 198.979 26.5605 199.59 26.2871C200.21 26.0046 200.743 25.5807 201.189 25.0156L203.104 27.0938C202.794 27.5404 202.37 27.9688 201.832 28.3789C201.303 28.7891 200.665 29.1263 199.918 29.3906C199.171 29.6458 198.318 29.7734 197.361 29.7734ZM209.611 17.9336V29.5H205.674V14.707H209.379L209.611 17.9336ZM214.068 14.6113L214 18.2617C213.809 18.2344 213.576 18.2116 213.303 18.1934C213.038 18.166 212.797 18.1523 212.578 18.1523C212.022 18.1523 211.539 18.2253 211.129 18.3711C210.728 18.5078 210.391 18.7129 210.117 18.9863C209.853 19.2598 209.652 19.5924 209.516 19.9844C209.388 20.3763 209.315 20.8229 209.297 21.3242L208.504 21.0781C208.504 20.1211 208.6 19.2415 208.791 18.4395C208.982 17.6283 209.26 16.9219 209.625 16.3203C209.999 15.7188 210.454 15.2539 210.992 14.9258C211.53 14.5977 212.145 14.4336 212.838 14.4336C213.057 14.4336 213.28 14.4518 213.508 14.4883C213.736 14.5156 213.923 14.5566 214.068 14.6113Z" fill="white"/>
<defs>
<clipPath id="clip0_403_3713">
<rect width="40" height="40" fill="white" transform="translate(0.5)"/>
</clipPath>
</defs>
</svg>
